<mxfile host="app.diagrams.net" modified="2023-04-26T16:13:26.876Z" agent="Mozilla/5.0 (Windows NT 10.0; Win64; x64) AppleWebKit/537.36 (KHTML, like Gecko) Chrome/112.0.0.0 Safari/537.36" etag="wKh5DPn8V9aijq2Xsnr8" version="21.2.2" type="github">
  <diagram id="C5RBs43oDa-KdzZeNtuy" name="Page-1">
    <mxGraphModel dx="1877" dy="1710" grid="1" gridSize="10" guides="1" tooltips="1" connect="1" arrows="1" fold="1" page="1" pageScale="1" pageWidth="827" pageHeight="1169" math="0" shadow="0">
      <root>
        <mxCell id="WIyWlLk6GJQsqaUBKTNV-0" />
        <mxCell id="WIyWlLk6GJQsqaUBKTNV-1" parent="WIyWlLk6GJQsqaUBKTNV-0" />
        <mxCell id="zOEpgMud1HclZPvXkhA7-0" value="Product" style="swimlane;whiteSpace=wrap;html=1;" vertex="1" parent="WIyWlLk6GJQsqaUBKTNV-1">
          <mxGeometry x="150" y="-570" width="200" height="280" as="geometry" />
        </mxCell>
        <mxCell id="zOEpgMud1HclZPvXkhA7-3" value="-productName : String" style="text;html=1;strokeColor=none;fillColor=none;align=center;verticalAlign=middle;whiteSpace=wrap;rounded=0;" vertex="1" parent="zOEpgMud1HclZPvXkhA7-0">
          <mxGeometry y="50" width="150" height="30" as="geometry" />
        </mxCell>
        <mxCell id="zOEpgMud1HclZPvXkhA7-4" value="-typeOfProduct : TypeOfProduct" style="text;html=1;strokeColor=none;fillColor=none;align=center;verticalAlign=middle;whiteSpace=wrap;rounded=0;" vertex="1" parent="zOEpgMud1HclZPvXkhA7-0">
          <mxGeometry x="5" y="70" width="190" height="30" as="geometry" />
        </mxCell>
        <mxCell id="zOEpgMud1HclZPvXkhA7-5" value="-img : String" style="text;html=1;strokeColor=none;fillColor=none;align=center;verticalAlign=middle;whiteSpace=wrap;rounded=0;" vertex="1" parent="zOEpgMud1HclZPvXkhA7-0">
          <mxGeometry x="5" y="90" width="80" height="30" as="geometry" />
        </mxCell>
        <mxCell id="zOEpgMud1HclZPvXkhA7-6" value="-Cost : Doubler" style="text;html=1;strokeColor=none;fillColor=none;align=center;verticalAlign=middle;whiteSpace=wrap;rounded=0;" vertex="1" parent="zOEpgMud1HclZPvXkhA7-0">
          <mxGeometry x="5" y="110" width="100" height="30" as="geometry" />
        </mxCell>
        <mxCell id="zOEpgMud1HclZPvXkhA7-7" value="-ID : Long&amp;nbsp;" style="text;html=1;strokeColor=none;fillColor=none;align=center;verticalAlign=middle;whiteSpace=wrap;rounded=0;" vertex="1" parent="zOEpgMud1HclZPvXkhA7-0">
          <mxGeometry x="10" y="30" width="60" height="30" as="geometry" />
        </mxCell>
        <mxCell id="zOEpgMud1HclZPvXkhA7-11" value="+ Getter()/Setter()" style="text;html=1;strokeColor=none;fillColor=none;align=center;verticalAlign=middle;whiteSpace=wrap;rounded=0;" vertex="1" parent="zOEpgMud1HclZPvXkhA7-0">
          <mxGeometry x="5" y="150" width="135" height="30" as="geometry" />
        </mxCell>
        <mxCell id="zOEpgMud1HclZPvXkhA7-2" value="" style="endArrow=none;html=1;rounded=0;entryX=1;entryY=0.5;entryDx=0;entryDy=0;exitX=0;exitY=0.5;exitDx=0;exitDy=0;" edge="1" parent="WIyWlLk6GJQsqaUBKTNV-1" source="zOEpgMud1HclZPvXkhA7-0" target="zOEpgMud1HclZPvXkhA7-0">
          <mxGeometry width="50" height="50" relative="1" as="geometry">
            <mxPoint x="170" y="275" as="sourcePoint" />
            <mxPoint x="220" y="225" as="targetPoint" />
          </mxGeometry>
        </mxCell>
        <mxCell id="zOEpgMud1HclZPvXkhA7-21" value="Contract" style="swimlane;whiteSpace=wrap;html=1;" vertex="1" parent="WIyWlLk6GJQsqaUBKTNV-1">
          <mxGeometry x="440" y="-680" width="200" height="500" as="geometry" />
        </mxCell>
        <mxCell id="zOEpgMud1HclZPvXkhA7-22" value="-product : Product" style="text;html=1;strokeColor=none;fillColor=none;align=center;verticalAlign=middle;whiteSpace=wrap;rounded=0;" vertex="1" parent="zOEpgMud1HclZPvXkhA7-21">
          <mxGeometry x="-15" y="50" width="150" height="30" as="geometry" />
        </mxCell>
        <mxCell id="zOEpgMud1HclZPvXkhA7-23" value="-typeOfContract : TypeOfContract" style="text;html=1;strokeColor=none;fillColor=none;align=center;verticalAlign=middle;whiteSpace=wrap;rounded=0;" vertex="1" parent="zOEpgMud1HclZPvXkhA7-21">
          <mxGeometry x="5" y="70" width="190" height="30" as="geometry" />
        </mxCell>
        <mxCell id="zOEpgMud1HclZPvXkhA7-24" value="-status : Status" style="text;html=1;strokeColor=none;fillColor=none;align=center;verticalAlign=middle;whiteSpace=wrap;rounded=0;" vertex="1" parent="zOEpgMud1HclZPvXkhA7-21">
          <mxGeometry x="-16" y="90" width="135" height="30" as="geometry" />
        </mxCell>
        <mxCell id="zOEpgMud1HclZPvXkhA7-25" value="-employee : Employee" style="text;html=1;strokeColor=none;fillColor=none;align=center;verticalAlign=middle;whiteSpace=wrap;rounded=0;" vertex="1" parent="zOEpgMud1HclZPvXkhA7-21">
          <mxGeometry x="-7.5" y="110" width="155" height="30" as="geometry" />
        </mxCell>
        <mxCell id="zOEpgMud1HclZPvXkhA7-26" value="-ID : Long&amp;nbsp;" style="text;html=1;strokeColor=none;fillColor=none;align=center;verticalAlign=middle;whiteSpace=wrap;rounded=0;" vertex="1" parent="zOEpgMud1HclZPvXkhA7-21">
          <mxGeometry x="10" y="30" width="60" height="30" as="geometry" />
        </mxCell>
        <mxCell id="zOEpgMud1HclZPvXkhA7-27" value="+ Getter()/Setter()" style="text;html=1;strokeColor=none;fillColor=none;align=center;verticalAlign=middle;whiteSpace=wrap;rounded=0;" vertex="1" parent="zOEpgMud1HclZPvXkhA7-21">
          <mxGeometry x="5" y="270" width="135" height="30" as="geometry" />
        </mxCell>
        <mxCell id="zOEpgMud1HclZPvXkhA7-35" value="-beginDate: Date" style="text;html=1;strokeColor=none;fillColor=none;align=center;verticalAlign=middle;whiteSpace=wrap;rounded=0;" vertex="1" parent="zOEpgMud1HclZPvXkhA7-21">
          <mxGeometry x="5" y="130" width="105" height="30" as="geometry" />
        </mxCell>
        <mxCell id="zOEpgMud1HclZPvXkhA7-37" value="-endDate: Date" style="text;html=1;strokeColor=none;fillColor=none;align=center;verticalAlign=middle;whiteSpace=wrap;rounded=0;" vertex="1" parent="zOEpgMud1HclZPvXkhA7-21">
          <mxGeometry y="150" width="105" height="30" as="geometry" />
        </mxCell>
        <mxCell id="zOEpgMud1HclZPvXkhA7-38" value="-customer : Customer" style="text;html=1;strokeColor=none;fillColor=none;align=center;verticalAlign=middle;whiteSpace=wrap;rounded=0;" vertex="1" parent="zOEpgMud1HclZPvXkhA7-21">
          <mxGeometry x="-7.5" y="175" width="160" height="30" as="geometry" />
        </mxCell>
        <mxCell id="zOEpgMud1HclZPvXkhA7-40" value="-interrest : String" style="text;html=1;strokeColor=none;fillColor=none;align=center;verticalAlign=middle;whiteSpace=wrap;rounded=0;" vertex="1" parent="zOEpgMud1HclZPvXkhA7-21">
          <mxGeometry x="-10" y="205" width="135" height="30" as="geometry" />
        </mxCell>
        <mxCell id="zOEpgMud1HclZPvXkhA7-32" value="" style="endArrow=none;html=1;rounded=0;entryX=0;entryY=0.5;entryDx=0;entryDy=0;exitX=1;exitY=0.5;exitDx=0;exitDy=0;startArrow=diamondThin;startFill=0;targetPerimeterSpacing=8;strokeWidth=1;endSize=8;sourcePerimeterSpacing=3;" edge="1" parent="WIyWlLk6GJQsqaUBKTNV-1" source="zOEpgMud1HclZPvXkhA7-0" target="zOEpgMud1HclZPvXkhA7-21">
          <mxGeometry width="50" height="50" relative="1" as="geometry">
            <mxPoint x="350" y="220" as="sourcePoint" />
            <mxPoint x="400" y="170" as="targetPoint" />
          </mxGeometry>
        </mxCell>
        <mxCell id="zOEpgMud1HclZPvXkhA7-33" value="Has" style="text;html=1;strokeColor=none;fillColor=none;align=center;verticalAlign=middle;whiteSpace=wrap;rounded=0;" vertex="1" parent="WIyWlLk6GJQsqaUBKTNV-1">
          <mxGeometry x="354" y="-470" width="60" height="30" as="geometry" />
        </mxCell>
        <mxCell id="zOEpgMud1HclZPvXkhA7-41" value="" style="endArrow=none;html=1;rounded=0;entryX=0;entryY=0.5;entryDx=0;entryDy=0;exitX=1;exitY=0.5;exitDx=0;exitDy=0;" edge="1" parent="WIyWlLk6GJQsqaUBKTNV-1" source="zOEpgMud1HclZPvXkhA7-21" target="zOEpgMud1HclZPvXkhA7-21">
          <mxGeometry width="50" height="50" relative="1" as="geometry">
            <mxPoint x="390" y="-370" as="sourcePoint" />
            <mxPoint x="440" y="-420" as="targetPoint" />
          </mxGeometry>
        </mxCell>
        <mxCell id="zOEpgMud1HclZPvXkhA7-42" value="&amp;lt;&amp;lt;interface&amp;gt;&amp;gt;&lt;br&gt;IProductRepository" style="swimlane;fontStyle=0;childLayout=stackLayout;horizontal=1;startSize=30;horizontalStack=0;resizeParent=1;resizeParentMax=0;resizeLast=0;collapsible=1;marginBottom=0;whiteSpace=wrap;html=1;" vertex="1" parent="WIyWlLk6GJQsqaUBKTNV-1">
          <mxGeometry x="-30" y="-180" width="140" height="60" as="geometry" />
        </mxCell>
        <mxCell id="zOEpgMud1HclZPvXkhA7-46" value="ProductService" style="swimlane;fontStyle=0;childLayout=stackLayout;horizontal=1;startSize=30;horizontalStack=0;resizeParent=1;resizeParentMax=0;resizeLast=0;collapsible=1;marginBottom=0;whiteSpace=wrap;html=1;" vertex="1" parent="WIyWlLk6GJQsqaUBKTNV-1">
          <mxGeometry x="-210" y="-390" width="220" height="150" as="geometry" />
        </mxCell>
        <mxCell id="zOEpgMud1HclZPvXkhA7-74" value="productRepository : IProductRepository&amp;nbsp;" style="text;html=1;strokeColor=none;fillColor=none;align=center;verticalAlign=middle;whiteSpace=wrap;rounded=0;" vertex="1" parent="zOEpgMud1HclZPvXkhA7-46">
          <mxGeometry y="30" width="220" height="90" as="geometry" />
        </mxCell>
        <mxCell id="zOEpgMud1HclZPvXkhA7-75" value="findAllContract():Page" style="text;html=1;strokeColor=none;fillColor=none;align=center;verticalAlign=middle;whiteSpace=wrap;rounded=0;" vertex="1" parent="zOEpgMud1HclZPvXkhA7-46">
          <mxGeometry y="120" width="220" height="30" as="geometry" />
        </mxCell>
        <mxCell id="zOEpgMud1HclZPvXkhA7-50" value="&amp;lt;&amp;lt;Iinterface&amp;gt;&amp;gt;&lt;br&gt;IProductService" style="swimlane;fontStyle=0;childLayout=stackLayout;horizontal=1;startSize=30;horizontalStack=0;resizeParent=1;resizeParentMax=0;resizeLast=0;collapsible=1;marginBottom=0;whiteSpace=wrap;html=1;" vertex="1" parent="WIyWlLk6GJQsqaUBKTNV-1">
          <mxGeometry x="-140" y="-570" width="140" height="60" as="geometry" />
        </mxCell>
        <mxCell id="zOEpgMud1HclZPvXkhA7-54" value="ControllerProduct" style="swimlane;fontStyle=0;childLayout=stackLayout;horizontal=1;startSize=30;horizontalStack=0;resizeParent=1;resizeParentMax=0;resizeLast=0;collapsible=1;marginBottom=0;whiteSpace=wrap;html=1;" vertex="1" parent="WIyWlLk6GJQsqaUBKTNV-1">
          <mxGeometry x="-90" y="-770" width="140" height="120" as="geometry" />
        </mxCell>
        <mxCell id="zOEpgMud1HclZPvXkhA7-55" value="Item 1" style="text;strokeColor=none;fillColor=none;align=left;verticalAlign=middle;spacingLeft=4;spacingRight=4;overflow=hidden;points=[[0,0.5],[1,0.5]];portConstraint=eastwest;rotatable=0;whiteSpace=wrap;html=1;" vertex="1" parent="zOEpgMud1HclZPvXkhA7-54">
          <mxGeometry y="30" width="140" height="30" as="geometry" />
        </mxCell>
        <mxCell id="zOEpgMud1HclZPvXkhA7-56" value="Item 2" style="text;strokeColor=none;fillColor=none;align=left;verticalAlign=middle;spacingLeft=4;spacingRight=4;overflow=hidden;points=[[0,0.5],[1,0.5]];portConstraint=eastwest;rotatable=0;whiteSpace=wrap;html=1;" vertex="1" parent="zOEpgMud1HclZPvXkhA7-54">
          <mxGeometry y="60" width="140" height="30" as="geometry" />
        </mxCell>
        <mxCell id="zOEpgMud1HclZPvXkhA7-57" value="Item 3" style="text;strokeColor=none;fillColor=none;align=left;verticalAlign=middle;spacingLeft=4;spacingRight=4;overflow=hidden;points=[[0,0.5],[1,0.5]];portConstraint=eastwest;rotatable=0;whiteSpace=wrap;html=1;" vertex="1" parent="zOEpgMud1HclZPvXkhA7-54">
          <mxGeometry y="90" width="140" height="30" as="geometry" />
        </mxCell>
        <mxCell id="zOEpgMud1HclZPvXkhA7-58" value="" style="endArrow=none;html=1;rounded=0;entryX=1;entryY=0.75;entryDx=0;entryDy=0;exitX=0;exitY=0.75;exitDx=0;exitDy=0;" edge="1" parent="WIyWlLk6GJQsqaUBKTNV-1" source="zOEpgMud1HclZPvXkhA7-42" target="zOEpgMud1HclZPvXkhA7-42">
          <mxGeometry width="50" height="50" relative="1" as="geometry">
            <mxPoint x="-80" y="-140" as="sourcePoint" />
            <mxPoint x="-30" y="-190" as="targetPoint" />
          </mxGeometry>
        </mxCell>
        <mxCell id="zOEpgMud1HclZPvXkhA7-59" value="" style="endArrow=none;html=1;rounded=0;entryX=1;entryY=0.75;entryDx=0;entryDy=0;exitX=0;exitY=0.75;exitDx=0;exitDy=0;" edge="1" parent="WIyWlLk6GJQsqaUBKTNV-1" source="zOEpgMud1HclZPvXkhA7-46" target="zOEpgMud1HclZPvXkhA7-46">
          <mxGeometry width="50" height="50" relative="1" as="geometry">
            <mxPoint x="-50" y="-320" as="sourcePoint" />
            <mxPoint y="-370" as="targetPoint" />
          </mxGeometry>
        </mxCell>
        <mxCell id="zOEpgMud1HclZPvXkhA7-60" value="" style="endArrow=classic;html=1;rounded=0;entryX=0;entryY=0.75;entryDx=0;entryDy=0;exitX=0.884;exitY=0.033;exitDx=0;exitDy=0;exitPerimeter=0;dashed=1;" edge="1" parent="WIyWlLk6GJQsqaUBKTNV-1" source="zOEpgMud1HclZPvXkhA7-42" target="zOEpgMud1HclZPvXkhA7-0">
          <mxGeometry width="50" height="50" relative="1" as="geometry">
            <mxPoint x="50" y="-250" as="sourcePoint" />
            <mxPoint x="100" y="-300" as="targetPoint" />
          </mxGeometry>
        </mxCell>
        <mxCell id="zOEpgMud1HclZPvXkhA7-61" value="" style="endArrow=classic;html=1;rounded=0;entryX=0;entryY=0;entryDx=0;entryDy=0;exitX=1;exitY=0;exitDx=0;exitDy=0;dashed=1;" edge="1" parent="WIyWlLk6GJQsqaUBKTNV-1" source="zOEpgMud1HclZPvXkhA7-46" target="zOEpgMud1HclZPvXkhA7-11">
          <mxGeometry width="50" height="50" relative="1" as="geometry">
            <mxPoint x="70" y="-390" as="sourcePoint" />
            <mxPoint x="120" y="-440" as="targetPoint" />
          </mxGeometry>
        </mxCell>
        <mxCell id="zOEpgMud1HclZPvXkhA7-63" value="" style="endArrow=classic;html=1;rounded=0;entryX=0;entryY=0.5;entryDx=0;entryDy=0;exitX=1;exitY=0.5;exitDx=0;exitDy=0;dashed=1;" edge="1" parent="WIyWlLk6GJQsqaUBKTNV-1" target="zOEpgMud1HclZPvXkhA7-3">
          <mxGeometry width="50" height="50" relative="1" as="geometry">
            <mxPoint y="-525" as="sourcePoint" />
            <mxPoint x="115" y="-520" as="targetPoint" />
          </mxGeometry>
        </mxCell>
        <mxCell id="zOEpgMud1HclZPvXkhA7-65" value="" style="endArrow=classic;html=1;rounded=0;entryX=0.173;entryY=0.001;entryDx=0;entryDy=0;exitX=1;exitY=0.5;exitDx=0;exitDy=0;dashed=1;entryPerimeter=0;" edge="1" parent="WIyWlLk6GJQsqaUBKTNV-1" source="zOEpgMud1HclZPvXkhA7-56" target="zOEpgMud1HclZPvXkhA7-0">
          <mxGeometry width="50" height="50" relative="1" as="geometry">
            <mxPoint x="70" y="-670" as="sourcePoint" />
            <mxPoint x="145" y="-700" as="targetPoint" />
          </mxGeometry>
        </mxCell>
        <mxCell id="zOEpgMud1HclZPvXkhA7-66" value="User" style="text;html=1;strokeColor=none;fillColor=none;align=center;verticalAlign=middle;whiteSpace=wrap;rounded=0;" vertex="1" parent="WIyWlLk6GJQsqaUBKTNV-1">
          <mxGeometry x="80" y="-680" width="60" height="30" as="geometry" />
        </mxCell>
        <mxCell id="zOEpgMud1HclZPvXkhA7-67" value="User" style="text;html=1;strokeColor=none;fillColor=none;align=center;verticalAlign=middle;whiteSpace=wrap;rounded=0;" vertex="1" parent="WIyWlLk6GJQsqaUBKTNV-1">
          <mxGeometry x="60" y="-540" width="60" height="30" as="geometry" />
        </mxCell>
        <mxCell id="zOEpgMud1HclZPvXkhA7-68" value="User" style="text;html=1;strokeColor=none;fillColor=none;align=center;verticalAlign=middle;whiteSpace=wrap;rounded=0;" vertex="1" parent="WIyWlLk6GJQsqaUBKTNV-1">
          <mxGeometry x="60" y="-360" width="60" height="30" as="geometry" />
        </mxCell>
        <mxCell id="zOEpgMud1HclZPvXkhA7-69" value="User" style="text;html=1;strokeColor=none;fillColor=none;align=center;verticalAlign=middle;whiteSpace=wrap;rounded=0;" vertex="1" parent="WIyWlLk6GJQsqaUBKTNV-1">
          <mxGeometry x="60" y="-450" width="60" height="30" as="geometry" />
        </mxCell>
      </root>
    </mxGraphModel>
  </diagram>
</mxfile>
